<svg enable-background="new 0 0 76.00 76.00" height="76" viewBox="16 16 44 44" width="76" xmlns="http://www.w3.org/2000/svg"><path d="m28.5 33.25c-3.1667 0-4.75 2.1267-4.75 4.75 0 2.6234 2.1266 4.75 4.75 4.75 1.737 0 3.1167-1.1909 4.433-2.9196 1.1443 1.8148 2.3271 3.7236 3.6182 5.5714-2.0445 2.1308-4.5826 3.6815-8.0512 3.6815-6.1212 0-11.0833-4.9621-11.0833-11.0833s4.75-11.0833 11.0833-11.0833c11.0833 0 12.6667 15.8333 19 15.8333 3.1667 0 4.75-2.1267 4.75-4.75 0-2.6234-2.1266-4.75-4.75-4.75-1.737 0-3.1166 1.1909-4.433 2.9196-1.1443-1.8148-2.3271-3.7236-3.6182-5.5714 2.0445-2.1308 4.5826-3.6815 8.0512-3.6815 6.1212 0 11.0833 4.9621 11.0833 11.0833s-4.75 11.0833-11.0833 11.0833c-11.0833 0-12.6667-15.8333-19-15.8333z" stroke-linejoin="round" stroke-width=".2"/></svg>